PathFileType	4	(X/Y/Z)	 s05c0201.trc
DataRate	CameraRate	NumFrames	NumMarkers	Units	OrigDataRate	OrigDataStartFrame	OrigNumFrames
200	200	5	50	mm	200	251	2000
Frame#	Time	racr			lacr			c7			jug			rlel			rdr			llel			ldr			s2			lic			ric			lasi			rasi			rpsi			lpsi			rgt			lgt			rth1			rth2			rth3			rth4			rlfc			rmfc			rsh1			rsh2			rsh3			rsh4			rlmal			rmmal			rcal			rtoe			rmt5			lth1			lth2			lth4			lth3			llfc			lmfc			lsh1			lsh2			lsh3			lsh4			llmal			lmmal			lcal			ltoe			lmt5			SBIKE			LBIKE			RBIKE			
		X1	Y1	Z1	X2	Y2	Z2	X3	Y3	Z3	X4	Y4	Z4	X5	Y5	Z5	X6	Y6	Z6	X7	Y7	Z7	X8	Y8	Z8	X9	Y9	Z9	X10	Y10	Z10	X11	Y11	Z11	X12	Y12	Z12	X13	Y13	Z13	X14	Y14	Z14	X15	Y15	Z15	X16	Y16	Z16	X17	Y17	Z17	X18	Y18	Z18	X19	Y19	Z19	X20	Y20	Z20	X21	Y21	Z21	X22	Y22	Z22	X23	Y23	Z23	X24	Y24	Z24	X25	Y25	Z25	X26	Y26	Z26	X27	Y27	Z27	X28	Y28	Z28	X29	Y29	Z29	X30	Y30	Z30	X31	Y31	Z31	X32	Y32	Z32	X33	Y33	Z33	X34	Y34	Z34	X35	Y35	Z35	X36	Y36	Z36	X37	Y37	Z37	X38	Y38	Z38	X39	Y39	Z39	X40	Y40	Z40	X41	Y41	Z41	X42	Y42	Z42	X43	Y43	Z43	X44	Y44	Z44	X45	Y45	Z45	X46	Y46	Z46	X47	Y47	Z47	X48	Y48	Z48	X49	Y49	Z49	X50	Y50	Z50	
251	1.2550	400.033528	1395.612663	-115.385879	410.977070	1416.342822	-405.524578	388.183499	1479.922170	-262.520122	375.009228	1325.030531	-265.565838	498.546783	1156.511788	-16.054006	685.006359	966.828271	-47.198494	487.298016	1161.350984	-514.153304	689.148793	974.137275	-474.158322	-109.924644	1158.281212	-269.396831	43.384527	1180.458781	-409.550528	36.611821	1194.805177	-129.440372	91.477892	1127.686051	-374.331682	79.776480	1137.017532	-155.444934	-80.405020	1205.978770	-230.486381	-75.372054	1207.933077	-315.926390	2.750833	1074.178111	-92.819168	-28.324081	1067.185822	-436.113098	106.377061	1030.008078	-79.971642	195.519547	1025.174379	-78.752268	268.480601	975.859196	-78.188614	206.393548	1058.057585	-92.781981	407.369867	907.138631	-105.444216	395.979034	900.957810	-215.561568	334.957293	821.482064	-84.953798	316.196782	734.913246	-95.289159	260.423502	670.771966	-100.300849	344.401889	724.150959	-119.025091	205.796904	548.776734	-111.377494	223.525930	576.696373	-190.149246	131.882960	522.305459	-158.413889	423.146857	473.220939	-146.063507	319.241089	459.921184	-82.886744	45.337353	945.058657	-457.875037	110.752227	889.594477	-458.544206	141.336918	907.912839	-445.799305	139.394568	803.658250	-461.531917	202.402382	667.645873	-433.044977	193.112136	657.574794	-324.437376	120.301018	568.246310	-456.057683	97.092123	484.637886	-443.462377	33.474890	422.857460	-441.190752	124.734374	471.541614	-420.261877	-20.926111	310.213234	-431.909942	7.939268	331.389666	-354.640365	-89.629785	280.827834	-387.920937	194.862977	206.468457	-396.008563	84.002213	201.825344	-458.153951	-259.600539	898.463243	-281.087556	-43.586502	84.979853	-474.969078	-51.891087	80.094803	-77.526421	
252	1.2600	400.045180	1395.650466	-115.331030	411.028835	1416.405292	-405.439430	388.143528	1479.963804	-262.437487	375.025878	1325.075977	-265.497441	498.616045	1156.552190	-16.022155	685.035598	966.836599	-47.144758	487.368580	1161.432062	-514.123818	689.177679	974.147686	-474.122817	-109.698211	1158.224188	-269.137868	43.387078	1180.417699	-409.500214	36.592124	1194.741380	-129.454616	91.417477	1127.832948	-374.252414	79.765452	1136.992743	-155.450244	-80.425971	1205.896918	-230.427935	-75.396753	1207.942065	-315.954513	2.699621	1074.225267	-92.814942	-28.365767	1067.185711	-436.115768	106.398341	1030.064103	-79.970720	195.536104	1025.255099	-78.744487	268.517813	975.953402	-78.215440	206.397195	1058.162333	-92.779431	407.389031	907.338003	-105.465260	395.990561	901.141011	-215.626580	334.910856	821.676539	-85.027453	316.131974	735.228972	-95.332347	260.363271	671.011568	-100.365848	344.366485	724.342327	-119.072819	205.719581	549.058033	-111.418863	223.490093	576.916239	-190.208996	131.817318	522.615763	-158.477958	423.036932	473.316148	-146.039482	319.089112	460.072610	-82.876336	45.292585	945.038694	-457.887822	110.827253	889.636711	-458.432663	141.290807	907.878468	-445.783218	139.329116	803.621763	-461.508413	202.308626	667.614627	-433.009363	193.027078	657.514585	-324.414259	120.248959	568.175589	-456.048177	97.082448	484.552869	-443.469507	33.515432	422.707224	-441.178333	124.764687	471.447023	-420.236032	-20.843676	310.051933	-431.872953	8.047816	331.243880	-354.620160	-89.526999	280.657137	-387.890293	194.999058	206.353974	-396.021288	84.136433	201.691338	-458.133543	-259.577853	898.455549	-281.141644	-43.594301	84.995298	-474.958989	-51.901354	80.105158	-77.518529	
253	1.2650	400.060581	1395.672402	-115.276204	411.066452	1416.450151	-405.314431	388.111291	1479.986133	-262.349791	375.058446	1325.097386	-265.430856	498.685903	1156.595246	-15.971265	685.046317	966.820922	-47.199561	487.440838	1161.512875	-514.118917	689.195722	974.169415	-474.075139	-109.720718	1158.216416	-269.141543	43.427838	1180.377379	-409.447128	36.603558	1194.697396	-129.460380	91.434920	1127.786526	-374.197796	79.724352	1136.968366	-155.412503	-80.465985	1205.948928	-230.511204	-75.422366	1207.928816	-315.940906	2.668684	1074.252772	-92.797688	-28.387401	1067.163634	-436.112377	106.410018	1030.105775	-79.937025	195.546542	1025.363754	-78.725035	268.537769	976.117528	-78.235296	206.407154	1058.254317	-92.786777	407.434317	907.531513	-105.519470	396.021149	901.315678	-215.672950	334.866518	821.946083	-85.108232	316.071913	735.445538	-95.406191	260.274923	671.218401	-100.417205	344.305712	724.535570	-119.082427	205.623303	549.296328	-111.454743	223.509866	577.126458	-190.233548	131.717478	522.971435	-158.562205	422.926598	473.397146	-146.029164	318.939157	460.238163	-82.879250	45.240251	944.996981	-457.887129	110.780395	889.568494	-458.411109	141.240257	907.806179	-445.774868	139.261884	803.559224	-461.471024	202.224042	667.557100	-432.986984	192.912356	657.474956	-324.407366	120.204890	568.108196	-456.039352	97.104464	484.481494	-443.449964	33.555608	422.564112	-441.173205	124.774832	471.379099	-420.219938	-20.717916	309.914959	-431.878582	8.125501	331.121400	-354.589438	-89.403607	280.478171	-387.858860	195.125273	206.248350	-396.007402	84.298830	201.536687	-458.116057	-259.603232	898.455680	-281.120845	-43.587059	84.984068	-474.960748	-51.926575	80.105851	-77.518950	
254	1.2700	400.065615	1395.738259	-115.205728	411.119445	1416.503751	-405.230053	388.080425	1480.046479	-262.263007	375.082209	1325.143895	-265.361624	498.707577	1156.630664	-15.868573	685.001805	966.793330	-47.378525	487.509115	1161.584623	-514.122708	689.199017	974.198845	-473.987693	-109.747807	1158.210213	-269.145742	43.446956	1180.363804	-409.404874	36.578830	1194.667120	-129.457725	91.446007	1127.763590	-374.137814	79.685859	1136.926060	-155.371629	-80.504748	1205.881311	-230.446745	-75.458221	1207.933658	-315.942326	2.675853	1074.276755	-92.792977	-28.414426	1067.158077	-436.093859	106.423495	1030.163358	-79.909725	195.539541	1025.434689	-78.709520	268.539567	976.243212	-78.257819	206.369064	1058.372997	-92.776617	407.456121	907.740915	-105.568836	396.047828	901.507943	-215.708082	334.818384	822.248751	-85.168715	316.018553	735.638663	-95.478422	260.171605	671.489781	-100.461688	344.232810	724.706333	-119.096246	205.548407	549.545218	-111.527428	223.462736	577.365586	-190.271589	131.643004	523.296020	-158.592518	422.799352	473.493453	-146.037508	318.791102	460.429224	-82.873067	45.181442	944.966996	-457.876106	110.700503	889.537488	-458.412277	141.166092	907.764023	-445.760076	139.170746	803.522618	-461.463370	202.126261	667.502983	-432.965060	192.792809	657.436411	-324.394410	120.168225	568.033252	-456.033670	97.106955	484.384891	-443.458495	33.603839	422.427487	-441.145113	124.767970	471.232951	-420.154337	-20.572224	309.731714	-431.843774	8.391105	330.827505	-354.641518	-89.258832	280.255981	-387.836619	195.284433	206.108540	-395.987777	84.459426	201.364001	-458.117085	-259.728758	898.491244	-281.018830	-43.590676	84.983546	-474.961138	-51.895452	80.098188	-77.507355	
255	1.2750	400.072910	1395.795078	-115.134186	411.173586	1416.569793	-405.127842	388.044712	1480.087686	-262.179052	375.114511	1325.180557	-265.289660	498.716629	1156.657235	-15.770672	684.935539	966.750521	-47.679215	487.548865	1161.626707	-514.131106	689.172562	974.217838	-473.874376	-109.795226	1158.220595	-269.165104	43.487091	1180.332115	-409.389559	36.588685	1194.628400	-129.457121	91.461153	1127.726892	-374.082827	79.639562	1136.880804	-155.357710	-80.535434	1205.949799	-230.507414	-75.486037	1207.944492	-315.944698	2.658273	1074.300790	-92.803264	-28.432328	1067.165028	-436.086877	106.431493	1030.203819	-79.880864	195.552704	1025.533306	-78.714777	268.560795	976.387267	-78.279361	206.341925	1058.470628	-92.777089	407.478023	907.973753	-105.634064	396.092149	901.716259	-215.749850	334.804334	822.478821	-85.256619	315.976509	735.902224	-95.482662	260.082927	671.795226	-100.521164	344.187220	724.912969	-119.089995	205.445597	549.831435	-111.542243	223.399993	577.622335	-190.316593	131.554447	523.577235	-158.642642	422.641110	473.621516	-146.021283	318.628544	460.627267	-82.899755	45.115649	944.931019	-457.879208	110.632212	889.461034	-458.391738	141.091900	907.691016	-445.755314	139.059635	803.451852	-461.458169	202.019227	667.463075	-432.951390	192.690786	657.378108	-324.397235	120.118346	567.940908	-456.022749	97.130645	484.269491	-443.445750	33.654958	422.280512	-441.119725	124.801106	471.139983	-420.144141	-20.426452	309.537964	-431.879456	8.585871	330.612721	-354.669020	-89.096354	280.018392	-387.816107	195.466388	205.964154	-396.009540	84.634439	201.187380	-458.114869	-259.643149	898.463746	-281.049712	-43.583532	84.983922	-474.955837	-51.884054	80.098054	-77.512546	
